<svg width="208" height="58" viewBox="0 0 208 58" fill="none" xmlns="http://www.w3.org/2000/svg">
<path d="M2.53 54.07C2.11 54.07 1.74 54 1.42 53.86C1.10667 53.72 0.863333 53.5233 0.69 53.27C0.516667 53.0167 0.43 52.7267 0.43 52.4C0.43 52.3133 0.433333 52.2467 0.44 52.2H1.13C1.11667 52.4133 1.15333 52.62 1.24 52.82C1.33333 53.0133 1.49 53.1767 1.71 53.31C1.93667 53.4367 2.22667 53.5 2.58 53.5C3.07333 53.5 3.46667 53.3767 3.76 53.13C4.05333 52.8833 4.2 52.55 4.2 52.13C4.2 51.8767 4.13 51.6667 3.99 51.5C3.85667 51.3267 3.69 51.1867 3.49 51.08C3.29 50.9667 3.01667 50.84 2.67 50.7C2.26333 50.54 1.94 50.3933 1.7 50.26C1.46 50.12 1.26 49.93 1.1 49.69C0.946667 49.45 0.883333 49.1433 0.91 48.77C0.923333 48.41 1.03 48.0933 1.23 47.82C1.43667 47.54 1.71333 47.3233 2.06 47.17C2.41333 47.01 2.81333 46.93 3.26 46.93C3.7 46.93 4.07667 47.0067 4.39 47.16C4.71 47.3067 4.94667 47.51 5.1 47.77C5.26 48.03 5.33 48.3167 5.31 48.63H4.58C4.59333 48.45 4.55 48.2733 4.45 48.1C4.35667 47.9267 4.20333 47.7867 3.99 47.68C3.78333 47.5667 3.52667 47.51 3.22 47.51C2.74667 47.51 2.36 47.6267 2.06 47.86C1.76 48.0867 1.61 48.3967 1.61 48.79C1.61 49.0233 1.67667 49.22 1.81 49.38C1.94333 49.54 2.10667 49.6733 2.3 49.78C2.49333 49.8867 2.76 50.01 3.1 50.15C3.49333 50.31 3.81 50.46 4.05 50.6C4.29667 50.74 4.50333 50.9267 4.67 51.16C4.84333 51.3933 4.93 51.6867 4.93 52.04C4.93 52.1267 4.92667 52.1933 4.92 52.24C4.89333 52.58 4.78 52.89 4.58 53.17C4.38 53.45 4.10333 53.67 3.75 53.83C3.40333 53.99 2.99667 54.07 2.53 54.07ZM7.29406 47.51C7.1674 47.51 7.06406 47.4733 6.98406 47.4C6.90406 47.32 6.86406 47.2167 6.86406 47.09C6.86406 46.9167 6.92406 46.7733 7.04406 46.66C7.16406 46.54 7.3074 46.48 7.47406 46.48C7.60073 46.48 7.70073 46.5167 7.77406 46.59C7.85406 46.6633 7.89406 46.76 7.89406 46.88C7.89406 47.0533 7.83406 47.2033 7.71406 47.33C7.59406 47.45 7.45406 47.51 7.29406 47.51ZM7.45406 48.54L6.49406 54H5.79406L6.75406 48.54H7.45406ZM9.72922 54.08C9.17589 54.08 8.72589 53.9533 8.37922 53.7C8.03255 53.44 7.85922 53.0867 7.85922 52.64C7.85922 52.56 7.86255 52.5 7.86922 52.46H8.54922C8.52255 52.78 8.61589 53.0367 8.82922 53.23C9.04255 53.4233 9.35589 53.52 9.76922 53.52C10.1892 53.52 10.5259 53.4333 10.7792 53.26C11.0326 53.08 11.1592 52.8433 11.1592 52.55C11.1592 52.3767 11.1059 52.23 10.9992 52.11C10.8926 51.99 10.7592 51.8933 10.5992 51.82C10.4459 51.74 10.2292 51.65 9.94922 51.55C9.60255 51.4233 9.32255 51.3067 9.10922 51.2C8.90255 51.0867 8.72255 50.9333 8.56922 50.74C8.42255 50.54 8.34922 50.29 8.34922 49.99C8.34922 49.69 8.43589 49.4233 8.60922 49.19C8.78255 48.9567 9.01922 48.7767 9.31922 48.65C9.62589 48.5233 9.97255 48.46 10.3592 48.46C10.8992 48.46 11.3392 48.5933 11.6792 48.86C12.0259 49.1267 12.1992 49.48 12.1992 49.92C12.1992 50.0133 12.1959 50.0833 12.1892 50.13H11.5292C11.5359 50.1033 11.5392 50.06 11.5392 50C11.5392 49.7067 11.4226 49.47 11.1892 49.29C10.9626 49.11 10.6692 49.02 10.3092 49.02C9.94922 49.02 9.64922 49.1067 9.40922 49.28C9.17589 49.4467 9.05922 49.6733 9.05922 49.96C9.05922 50.1533 9.11589 50.3167 9.22922 50.45C9.34255 50.5767 9.48255 50.68 9.64922 50.76C9.81589 50.84 10.0392 50.9333 10.3192 51.04C10.6526 51.1667 10.9192 51.2833 11.1192 51.39C11.3259 51.4967 11.4992 51.6433 11.6392 51.83C11.7792 52.0167 11.8492 52.25 11.8492 52.53C11.8492 53.0033 11.6526 53.38 11.2592 53.66C10.8659 53.94 10.3559 54.08 9.72922 54.08ZM13.9969 52.52C13.9769 52.64 13.9669 52.7433 13.9669 52.83C13.9669 53.0433 14.0235 53.1933 14.1369 53.28C14.2569 53.36 14.4502 53.4 14.7169 53.4H15.3569L15.2469 54H14.4969C14.0835 54 13.7735 53.92 13.5669 53.76C13.3602 53.6 13.2569 53.3367 13.2569 52.97C13.2569 52.8233 13.2702 52.6733 13.2969 52.52L13.8969 49.13H13.1369L13.2469 48.54H14.0069L14.2469 47.17H14.9469L14.7069 48.54H16.2169L16.1069 49.13H14.5969L13.9969 52.52ZM19.5713 48.46C20.0313 48.46 20.4247 48.55 20.7513 48.73C21.078 48.9033 21.3247 49.1433 21.4913 49.45C21.6647 49.7567 21.7513 50.1067 21.7513 50.5C21.7513 50.68 21.738 50.84 21.7113 50.98C21.6713 51.18 21.6313 51.36 21.5913 51.52H17.0613C17.0413 51.6467 17.0313 51.7667 17.0313 51.88C17.0313 52.3933 17.1847 52.79 17.4913 53.07C17.8047 53.35 18.2013 53.49 18.6813 53.49C19.1413 53.49 19.5447 53.38 19.8913 53.16C20.238 52.94 20.4913 52.6433 20.6513 52.27H21.4013C21.1747 52.8033 20.8113 53.24 20.3113 53.58C19.818 53.9133 19.2413 54.08 18.5813 54.08C17.9013 54.08 17.3547 53.8867 16.9413 53.5C16.5347 53.1067 16.3313 52.5733 16.3313 51.9C16.3313 51.7 16.3513 51.49 16.3913 51.27C16.4913 50.7033 16.6913 50.2067 16.9913 49.78C17.298 49.3533 17.6747 49.0267 18.1213 48.8C18.568 48.5733 19.0513 48.46 19.5713 48.46ZM20.9913 51C21.0247 50.8133 21.0413 50.6567 21.0413 50.53C21.0413 50.0567 20.8913 49.6933 20.5913 49.44C20.2913 49.1867 19.908 49.06 19.4413 49.06C19.1013 49.06 18.7747 49.1333 18.4613 49.28C18.148 49.4267 17.8747 49.6467 17.6413 49.94C17.408 50.2333 17.248 50.5867 17.1613 51H20.9913ZM29.772 48.44C30.3187 48.44 30.7554 48.59 31.082 48.89C31.4154 49.19 31.582 49.63 31.582 50.21C31.582 50.39 31.562 50.5867 31.522 50.8L30.952 54H30.262L30.822 50.88C30.8554 50.68 30.872 50.5133 30.872 50.38C30.872 49.9467 30.7554 49.6167 30.522 49.39C30.2887 49.1633 29.9587 49.05 29.532 49.05C29.0587 49.05 28.642 49.2 28.282 49.5C27.9287 49.8 27.682 50.2333 27.542 50.8L26.962 54H26.272L26.832 50.88C26.8654 50.68 26.882 50.5133 26.882 50.38C26.882 49.9467 26.7654 49.6167 26.532 49.39C26.2987 49.1633 25.972 49.05 25.552 49.05C25.0454 49.05 24.6087 49.2167 24.242 49.55C23.8754 49.8767 23.632 50.35 23.512 50.97L22.982 54H22.282L23.242 48.54H23.942L23.772 49.49C23.9987 49.15 24.2887 48.89 24.642 48.71C25.002 48.53 25.382 48.44 25.782 48.44C26.2554 48.44 26.6487 48.5533 26.962 48.78C27.2754 49.0067 27.472 49.34 27.552 49.78C27.772 49.3467 28.082 49.0167 28.482 48.79C28.882 48.5567 29.312 48.44 29.772 48.44ZM37.0459 47.01L35.8159 54H35.1159L36.3459 47.01H37.0459ZM40.781 48.44C41.341 48.44 41.7877 48.5933 42.121 48.9C42.461 49.2 42.631 49.64 42.631 50.22C42.631 50.4333 42.6143 50.6267 42.581 50.8L42.011 54H41.321L41.871 50.88C41.8977 50.7267 41.911 50.5633 41.911 50.39C41.911 49.95 41.791 49.6167 41.551 49.39C41.311 49.1633 40.9743 49.05 40.541 49.05C40.0143 49.05 39.5643 49.2167 39.191 49.55C38.8177 49.8833 38.5743 50.3733 38.461 51.02V50.99L37.931 54H37.231L38.191 48.54H38.891L38.721 49.48C38.9543 49.1467 39.251 48.89 39.611 48.71C39.971 48.53 40.361 48.44 40.781 48.44ZM46.7291 47.03C46.2758 47.03 45.9425 47.1167 45.7291 47.29C45.5158 47.4633 45.3725 47.7533 45.2991 48.16L45.2291 48.54H46.5091L46.3991 49.13H45.1291L44.2691 54H43.5691L44.4291 49.13H43.6691L43.7791 48.54H44.5291L44.5991 48.16C44.7058 47.5667 44.9358 47.13 45.2891 46.85C45.6425 46.57 46.1591 46.43 46.8391 46.43L46.7291 47.03ZM48.8711 54.08C48.4178 54.08 48.0178 53.99 47.6711 53.81C47.3244 53.6233 47.0544 53.3633 46.8611 53.03C46.6744 52.69 46.5811 52.2933 46.5811 51.84C46.5811 51.2267 46.7211 50.6633 47.0011 50.15C47.2811 49.63 47.6711 49.22 48.1711 48.92C48.6711 48.6133 49.2278 48.46 49.8411 48.46C50.2944 48.46 50.6944 48.5533 51.0411 48.74C51.3878 48.92 51.6578 49.18 51.8511 49.52C52.0444 49.8533 52.1411 50.2467 52.1411 50.7C52.1411 51.32 51.9978 51.8867 51.7111 52.4C51.4244 52.9133 51.0311 53.3233 50.5311 53.63C50.0378 53.93 49.4844 54.08 48.8711 54.08ZM48.9511 53.49C49.4244 53.49 49.8478 53.3633 50.2211 53.11C50.6011 52.8567 50.8944 52.52 51.1011 52.1C51.3144 51.68 51.4211 51.2267 51.4211 50.74C51.4211 50.1933 51.2611 49.7767 50.9411 49.49C50.6278 49.2033 50.2278 49.06 49.7411 49.06C49.2678 49.06 48.8444 49.1867 48.4711 49.44C48.1044 49.6933 47.8178 50.03 47.6111 50.45C47.4044 50.87 47.3011 51.3233 47.3011 51.81C47.3011 52.35 47.4578 52.7667 47.7711 53.06C48.0844 53.3467 48.4778 53.49 48.9511 53.49ZM54.1871 49.63C54.4071 49.25 54.6938 48.9567 55.0471 48.75C55.4004 48.5433 55.8104 48.44 56.2771 48.44L56.1471 49.17H55.9471C55.4671 49.17 55.0538 49.2933 54.7071 49.54C54.3604 49.7867 54.1204 50.1933 53.9871 50.76L53.4171 54H52.7171L53.6771 48.54H54.3771L54.1871 49.63ZM63.6602 48.44C64.2068 48.44 64.6435 48.59 64.9702 48.89C65.3035 49.19 65.4702 49.63 65.4702 50.21C65.4702 50.39 65.4502 50.5867 65.4102 50.8L64.8402 54H64.1502L64.7102 50.88C64.7435 50.68 64.7602 50.5133 64.7602 50.38C64.7602 49.9467 64.6435 49.6167 64.4102 49.39C64.1768 49.1633 63.8468 49.05 63.4202 49.05C62.9468 49.05 62.5302 49.2 62.1702 49.5C61.8168 49.8 61.5702 50.2333 61.4302 50.8L60.8502 54H60.1602L60.7202 50.88C60.7535 50.68 60.7702 50.5133 60.7702 50.38C60.7702 49.9467 60.6535 49.6167 60.4202 49.39C60.1868 49.1633 59.8602 49.05 59.4402 49.05C58.9335 49.05 58.4968 49.2167 58.1302 49.55C57.7635 49.8767 57.5202 50.35 57.4002 50.97L56.8702 54H56.1702L57.1302 48.54H57.8302L57.6602 49.49C57.8868 49.15 58.1768 48.89 58.5302 48.71C58.8902 48.53 59.2702 48.44 59.6702 48.44C60.1435 48.44 60.5368 48.5533 60.8502 48.78C61.1635 49.0067 61.3602 49.34 61.4402 49.78C61.6602 49.3467 61.9702 49.0167 62.3702 48.79C62.7702 48.5567 63.2002 48.44 63.6602 48.44ZM66.3848 51.26C66.4848 50.7 66.6848 50.21 66.9848 49.79C67.2848 49.3633 67.6514 49.0367 68.0848 48.81C68.5248 48.5767 68.9948 48.46 69.4948 48.46C70.0148 48.46 70.4414 48.58 70.7748 48.82C71.1081 49.06 71.3248 49.3667 71.4248 49.74L71.6348 48.54H72.3348L71.3748 54H70.6748L70.8848 52.79C70.6581 53.1633 70.3314 53.4733 69.9048 53.72C69.4848 53.96 69.0148 54.08 68.4948 54.08C68.0614 54.08 67.6814 53.99 67.3548 53.81C67.0281 53.63 66.7748 53.3767 66.5948 53.05C66.4148 52.7167 66.3248 52.3267 66.3248 51.88C66.3248 51.6867 66.3448 51.48 66.3848 51.26ZM71.1548 51.27C71.1881 51.0833 71.2048 50.9167 71.2048 50.77C71.2048 50.25 71.0481 49.8367 70.7348 49.53C70.4214 49.2233 70.0148 49.07 69.5148 49.07C69.1281 49.07 68.7648 49.1567 68.4248 49.33C68.0914 49.5033 67.8081 49.7567 67.5748 50.09C67.3414 50.4167 67.1848 50.8067 67.1048 51.26C67.0714 51.46 67.0548 51.63 67.0548 51.77C67.0548 52.2967 67.2081 52.7133 67.5148 53.02C67.8281 53.32 68.2348 53.47 68.7348 53.47C69.1081 53.47 69.4648 53.38 69.8048 53.2C70.1514 53.02 70.4414 52.7633 70.6748 52.43C70.9148 52.0967 71.0748 51.71 71.1548 51.27ZM74.6228 54.08C74.0695 54.08 73.6195 53.9533 73.2728 53.7C72.9261 53.44 72.7528 53.0867 72.7528 52.64C72.7528 52.56 72.7561 52.5 72.7628 52.46H73.4428C73.4161 52.78 73.5095 53.0367 73.7228 53.23C73.9361 53.4233 74.2495 53.52 74.6628 53.52C75.0828 53.52 75.4195 53.4333 75.6728 53.26C75.9261 53.08 76.0528 52.8433 76.0528 52.55C76.0528 52.3767 75.9995 52.23 75.8928 52.11C75.7861 51.99 75.6528 51.8933 75.4928 51.82C75.3395 51.74 75.1228 51.65 74.8428 51.55C74.4961 51.4233 74.2161 51.3067 74.0028 51.2C73.7961 51.0867 73.6161 50.9333 73.4628 50.74C73.3161 50.54 73.2428 50.29 73.2428 49.99C73.2428 49.69 73.3295 49.4233 73.5028 49.19C73.6761 48.9567 73.9128 48.7767 74.2128 48.65C74.5195 48.5233 74.8661 48.46 75.2528 48.46C75.7928 48.46 76.2328 48.5933 76.5728 48.86C76.9195 49.1267 77.0928 49.48 77.0928 49.92C77.0928 50.0133 77.0895 50.0833 77.0828 50.13H76.4228C76.4295 50.1033 76.4328 50.06 76.4328 50C76.4328 49.7067 76.3161 49.47 76.0828 49.29C75.8561 49.11 75.5628 49.02 75.2028 49.02C74.8428 49.02 74.5428 49.1067 74.3028 49.28C74.0695 49.4467 73.9528 49.6733 73.9528 49.96C73.9528 50.1533 74.0095 50.3167 74.1228 50.45C74.2361 50.5767 74.3761 50.68 74.5428 50.76C74.7095 50.84 74.9328 50.9333 75.2128 51.04C75.5461 51.1667 75.8128 51.2833 76.0128 51.39C76.2195 51.4967 76.3928 51.6433 76.5328 51.83C76.6728 52.0167 76.7428 52.25 76.7428 52.53C76.7428 53.0033 76.5461 53.38 76.1528 53.66C75.7595 53.94 75.2495 54.08 74.6228 54.08ZM79.2305 47.51C79.1038 47.51 79.0005 47.4733 78.9205 47.4C78.8405 47.32 78.8005 47.2167 78.8005 47.09C78.8005 46.9167 78.8605 46.7733 78.9805 46.66C79.1005 46.54 79.2438 46.48 79.4105 46.48C79.5371 46.48 79.6371 46.5167 79.7105 46.59C79.7905 46.6633 79.8305 46.76 79.8305 46.88C79.8305 47.0533 79.7705 47.2033 79.6505 47.33C79.5305 47.45 79.3905 47.51 79.2305 47.51ZM79.3905 48.54L78.4305 54H77.7305L78.6905 48.54H79.3905ZM87.9748 49.02C87.8682 49.62 87.5848 50.1033 87.1248 50.47C86.6648 50.8367 86.0415 51.02 85.2548 51.02H83.8448L83.3248 54H82.6248L83.8548 47.01H85.9648C86.6515 47.01 87.1648 47.1533 87.5048 47.44C87.8448 47.7267 88.0148 48.1133 88.0148 48.6C88.0148 48.7533 88.0015 48.8933 87.9748 49.02ZM85.3648 50.44C86.4582 50.44 87.0882 49.9667 87.2548 49.02C87.2815 48.8467 87.2948 48.7233 87.2948 48.65C87.2948 47.93 86.8182 47.57 85.8648 47.57H84.4548L83.9548 50.44H85.3648ZM91.4394 48.46C91.8994 48.46 92.2927 48.55 92.6194 48.73C92.946 48.9033 93.1927 49.1433 93.3594 49.45C93.5327 49.7567 93.6194 50.1067 93.6194 50.5C93.6194 50.68 93.606 50.84 93.5794 50.98C93.5394 51.18 93.4994 51.36 93.4594 51.52H88.9294C88.9094 51.6467 88.8994 51.7667 88.8994 51.88C88.8994 52.3933 89.0527 52.79 89.3594 53.07C89.6727 53.35 90.0694 53.49 90.5494 53.49C91.0094 53.49 91.4127 53.38 91.7594 53.16C92.106 52.94 92.3594 52.6433 92.5194 52.27H93.2694C93.0427 52.8033 92.6794 53.24 92.1794 53.58C91.686 53.9133 91.1094 54.08 90.4494 54.08C89.7694 54.08 89.2227 53.8867 88.8094 53.5C88.4027 53.1067 88.1994 52.5733 88.1994 51.9C88.1994 51.7 88.2194 51.49 88.2594 51.27C88.3594 50.7033 88.5594 50.2067 88.8594 49.78C89.166 49.3533 89.5427 49.0267 89.9894 48.8C90.436 48.5733 90.9194 48.46 91.4394 48.46ZM92.8594 51C92.8927 50.8133 92.9094 50.6567 92.9094 50.53C92.9094 50.0567 92.7594 49.6933 92.4594 49.44C92.1594 49.1867 91.776 49.06 91.3094 49.06C90.9694 49.06 90.6427 49.1333 90.3294 49.28C90.016 49.4267 89.7427 49.6467 89.5094 49.94C89.276 50.2333 89.116 50.5867 89.0294 51H92.8594ZM101.64 48.44C102.187 48.44 102.623 48.59 102.95 48.89C103.283 49.19 103.45 49.63 103.45 50.21C103.45 50.39 103.43 50.5867 103.39 50.8L102.82 54H102.13L102.69 50.88C102.723 50.68 102.74 50.5133 102.74 50.38C102.74 49.9467 102.623 49.6167 102.39 49.39C102.157 49.1633 101.827 49.05 101.4 49.05C100.927 49.05 100.51 49.2 100.15 49.5C99.7967 49.8 99.5501 50.2333 99.4101 50.8L98.8301 54H98.1401L98.7001 50.88C98.7334 50.68 98.7501 50.5133 98.7501 50.38C98.7501 49.9467 98.6334 49.6167 98.4001 49.39C98.1667 49.1633 97.8401 49.05 97.4201 49.05C96.9134 49.05 96.4767 49.2167 96.1101 49.55C95.7434 49.8767 95.5001 50.35 95.3801 50.97L94.8501 54H94.1501L95.1101 48.54H95.8101L95.6401 49.49C95.8667 49.15 96.1567 48.89 96.5101 48.71C96.8701 48.53 97.2501 48.44 97.6501 48.44C98.1234 48.44 98.5167 48.5533 98.8301 48.78C99.1434 49.0067 99.3401 49.34 99.4201 49.78C99.6401 49.3467 99.9501 49.0167 100.35 48.79C100.75 48.5567 101.18 48.44 101.64 48.44ZM105.705 47.51C105.578 47.51 105.475 47.4733 105.395 47.4C105.315 47.32 105.275 47.2167 105.275 47.09C105.275 46.9167 105.335 46.7733 105.455 46.66C105.575 46.54 105.718 46.48 105.885 46.48C106.011 46.48 106.111 46.5167 106.185 46.59C106.265 46.6633 106.305 46.76 106.305 46.88C106.305 47.0533 106.245 47.2033 106.125 47.33C106.005 47.45 105.865 47.51 105.705 47.51ZM105.865 48.54L104.905 54H104.205L105.165 48.54H105.865ZM109.87 48.44C110.43 48.44 110.877 48.5933 111.21 48.9C111.55 49.2 111.72 49.64 111.72 50.22C111.72 50.4333 111.703 50.6267 111.67 50.8L111.1 54H110.41L110.96 50.88C110.987 50.7267 111 50.5633 111 50.39C111 49.95 110.88 49.6167 110.64 49.39C110.4 49.1633 110.063 49.05 109.63 49.05C109.103 49.05 108.653 49.2167 108.28 49.55C107.907 49.8833 107.663 50.3733 107.55 51.02V50.99L107.02 54H106.32L107.28 48.54H107.98L107.81 49.48C108.043 49.1467 108.34 48.89 108.7 48.71C109.06 48.53 109.45 48.44 109.87 48.44ZM114.018 47.51C113.891 47.51 113.788 47.4733 113.708 47.4C113.635 47.32 113.598 47.2167 113.598 47.09C113.598 46.9167 113.658 46.7733 113.778 46.66C113.898 46.54 114.038 46.48 114.198 46.48C114.325 46.48 114.428 46.52 114.508 46.6C114.588 46.6733 114.628 46.7733 114.628 46.9C114.628 47.0667 114.565 47.21 114.438 47.33C114.318 47.45 114.178 47.51 114.018 47.51ZM112.998 55.29C112.925 55.73 112.758 56.0533 112.498 56.26C112.238 56.4733 111.885 56.58 111.438 56.58H110.958L111.068 55.98H111.438C111.698 55.98 111.895 55.9233 112.028 55.81C112.161 55.7033 112.251 55.52 112.298 55.26L113.488 48.54H114.188L112.998 55.29ZM114.812 51.26C114.912 50.7 115.112 50.21 115.412 49.79C115.712 49.3633 116.078 49.0367 116.512 48.81C116.952 48.5767 117.422 48.46 117.922 48.46C118.442 48.46 118.868 48.58 119.202 48.82C119.535 49.06 119.752 49.3667 119.852 49.74L120.062 48.54H120.762L119.802 54H119.102L119.312 52.79C119.085 53.1633 118.758 53.4733 118.332 53.72C117.912 53.96 117.442 54.08 116.922 54.08C116.488 54.08 116.108 53.99 115.782 53.81C115.455 53.63 115.202 53.3767 115.022 53.05C114.842 52.7167 114.752 52.3267 114.752 51.88C114.752 51.6867 114.772 51.48 114.812 51.26ZM119.582 51.27C119.615 51.0833 119.632 50.9167 119.632 50.77C119.632 50.25 119.475 49.8367 119.162 49.53C118.848 49.2233 118.442 49.07 117.942 49.07C117.555 49.07 117.192 49.1567 116.852 49.33C116.518 49.5033 116.235 49.7567 116.002 50.09C115.768 50.4167 115.612 50.8067 115.532 51.26C115.498 51.46 115.482 51.63 115.482 51.77C115.482 52.2967 115.635 52.7133 115.942 53.02C116.255 53.32 116.662 53.47 117.162 53.47C117.535 53.47 117.892 53.38 118.232 53.2C118.578 53.02 118.868 52.7633 119.102 52.43C119.342 52.0967 119.502 51.71 119.582 51.27ZM128.72 48.44C129.266 48.44 129.703 48.59 130.03 48.89C130.363 49.19 130.53 49.63 130.53 50.21C130.53 50.39 130.51 50.5867 130.47 50.8L129.9 54H129.21L129.77 50.88C129.803 50.68 129.82 50.5133 129.82 50.38C129.82 49.9467 129.703 49.6167 129.47 49.39C129.236 49.1633 128.906 49.05 128.48 49.05C128.006 49.05 127.59 49.2 127.23 49.5C126.876 49.8 126.63 50.2333 126.49 50.8L125.91 54H125.22L125.78 50.88C125.813 50.68 125.83 50.5133 125.83 50.38C125.83 49.9467 125.713 49.6167 125.48 49.39C125.246 49.1633 124.92 49.05 124.5 49.05C123.993 49.05 123.556 49.2167 123.19 49.55C122.823 49.8767 122.58 50.35 122.46 50.97L121.93 54H121.23L122.19 48.54H122.89L122.72 49.49C122.946 49.15 123.236 48.89 123.59 48.71C123.95 48.53 124.33 48.44 124.73 48.44C125.203 48.44 125.596 48.5533 125.91 48.78C126.223 49.0067 126.42 49.34 126.5 49.78C126.72 49.3467 127.03 49.0167 127.43 48.79C127.83 48.5567 128.26 48.44 128.72 48.44ZM131.444 51.26C131.544 50.7 131.744 50.21 132.044 49.79C132.344 49.3633 132.711 49.0367 133.144 48.81C133.584 48.5767 134.054 48.46 134.554 48.46C135.074 48.46 135.501 48.58 135.834 48.82C136.168 49.06 136.384 49.3667 136.484 49.74L136.694 48.54H137.394L136.434 54H135.734L135.944 52.79C135.718 53.1633 135.391 53.4733 134.964 53.72C134.544 53.96 134.074 54.08 133.554 54.08C133.121 54.08 132.741 53.99 132.414 53.81C132.088 53.63 131.834 53.3767 131.654 53.05C131.474 52.7167 131.384 52.3267 131.384 51.88C131.384 51.6867 131.404 51.48 131.444 51.26ZM136.214 51.27C136.248 51.0833 136.264 50.9167 136.264 50.77C136.264 50.25 136.108 49.8367 135.794 49.53C135.481 49.2233 135.074 49.07 134.574 49.07C134.188 49.07 133.824 49.1567 133.484 49.33C133.151 49.5033 132.868 49.7567 132.634 50.09C132.401 50.4167 132.244 50.8067 132.164 51.26C132.131 51.46 132.114 51.63 132.114 51.77C132.114 52.2967 132.268 52.7133 132.574 53.02C132.888 53.32 133.294 53.47 133.794 53.47C134.168 53.47 134.524 53.38 134.864 53.2C135.211 53.02 135.501 52.7633 135.734 52.43C135.974 52.0967 136.134 51.71 136.214 51.27ZM141.412 48.44C141.972 48.44 142.419 48.5933 142.752 48.9C143.092 49.2 143.262 49.64 143.262 50.22C143.262 50.4333 143.246 50.6267 143.212 50.8L142.642 54H141.952L142.502 50.88C142.529 50.7267 142.542 50.5633 142.542 50.39C142.542 49.95 142.422 49.6167 142.182 49.39C141.942 49.1633 141.606 49.05 141.172 49.05C140.646 49.05 140.196 49.2167 139.822 49.55C139.449 49.8833 139.206 50.3733 139.092 51.02V50.99L138.562 54H137.862L138.822 48.54H139.522L139.352 49.48C139.586 49.1467 139.882 48.89 140.242 48.71C140.602 48.53 140.992 48.44 141.412 48.44ZM148.73 47.01L147.5 54H146.8L148.03 47.01H148.73ZM152.465 48.44C153.025 48.44 153.472 48.5933 153.805 48.9C154.145 49.2 154.315 49.64 154.315 50.22C154.315 50.4333 154.298 50.6267 154.265 50.8L153.695 54H153.005L153.555 50.88C153.582 50.7267 153.595 50.5633 153.595 50.39C153.595 49.95 153.475 49.6167 153.235 49.39C152.995 49.1633 152.658 49.05 152.225 49.05C151.698 49.05 151.248 49.2167 150.875 49.55C150.502 49.8833 150.258 50.3733 150.145 51.02V50.99L149.615 54H148.915L149.875 48.54H150.575L150.405 49.48C150.638 49.1467 150.935 48.89 151.295 48.71C151.655 48.53 152.045 48.44 152.465 48.44ZM157.143 53.29L159.813 48.54H160.573L157.413 54H156.603L155.383 48.54H156.133L157.143 53.29ZM163.712 48.46C164.172 48.46 164.565 48.55 164.892 48.73C165.218 48.9033 165.465 49.1433 165.632 49.45C165.805 49.7567 165.892 50.1067 165.892 50.5C165.892 50.68 165.878 50.84 165.852 50.98C165.812 51.18 165.772 51.36 165.732 51.52H161.202C161.182 51.6467 161.172 51.7667 161.172 51.88C161.172 52.3933 161.325 52.79 161.632 53.07C161.945 53.35 162.342 53.49 162.822 53.49C163.282 53.49 163.685 53.38 164.032 53.16C164.378 52.94 164.632 52.6433 164.792 52.27H165.542C165.315 52.8033 164.952 53.24 164.452 53.58C163.958 53.9133 163.382 54.08 162.722 54.08C162.042 54.08 161.495 53.8867 161.082 53.5C160.675 53.1067 160.472 52.5733 160.472 51.9C160.472 51.7 160.492 51.49 160.532 51.27C160.632 50.7033 160.832 50.2067 161.132 49.78C161.438 49.3533 161.815 49.0267 162.262 48.8C162.708 48.5733 163.192 48.46 163.712 48.46ZM165.132 51C165.165 50.8133 165.182 50.6567 165.182 50.53C165.182 50.0567 165.032 49.6933 164.732 49.44C164.432 49.1867 164.048 49.06 163.582 49.06C163.242 49.06 162.915 49.1333 162.602 49.28C162.288 49.4267 162.015 49.6467 161.782 49.94C161.548 50.2333 161.388 50.5867 161.302 51H165.132ZM169.972 48.44C170.532 48.44 170.979 48.5933 171.312 48.9C171.652 49.2 171.822 49.64 171.822 50.22C171.822 50.4333 171.806 50.6267 171.772 50.8L171.202 54H170.512L171.062 50.88C171.089 50.7267 171.102 50.5633 171.102 50.39C171.102 49.95 170.982 49.6167 170.742 49.39C170.502 49.1633 170.166 49.05 169.732 49.05C169.206 49.05 168.756 49.2167 168.382 49.55C168.009 49.8833 167.766 50.3733 167.652 51.02V50.99L167.122 54H166.422L167.382 48.54H168.082L167.912 49.48C168.146 49.1467 168.442 48.89 168.802 48.71C169.162 48.53 169.552 48.44 169.972 48.44ZM173.741 52.52C173.721 52.64 173.711 52.7433 173.711 52.83C173.711 53.0433 173.767 53.1933 173.881 53.28C174.001 53.36 174.194 53.4 174.461 53.4H175.101L174.991 54H174.241C173.827 54 173.517 53.92 173.311 53.76C173.104 53.6 173.001 53.3367 173.001 52.97C173.001 52.8233 173.014 52.6733 173.041 52.52L173.641 49.13H172.881L172.991 48.54H173.751L173.991 47.17H174.691L174.451 48.54H175.961L175.851 49.13H174.341L173.741 52.52ZM176.135 51.26C176.235 50.7 176.435 50.21 176.735 49.79C177.035 49.3633 177.402 49.0367 177.835 48.81C178.275 48.5767 178.745 48.46 179.245 48.46C179.765 48.46 180.192 48.58 180.525 48.82C180.858 49.06 181.075 49.3667 181.175 49.74L181.385 48.54H182.085L181.125 54H180.425L180.635 52.79C180.408 53.1633 180.082 53.4733 179.655 53.72C179.235 53.96 178.765 54.08 178.245 54.08C177.812 54.08 177.432 53.99 177.105 53.81C176.778 53.63 176.525 53.3767 176.345 53.05C176.165 52.7167 176.075 52.3267 176.075 51.88C176.075 51.6867 176.095 51.48 176.135 51.26ZM180.905 51.27C180.938 51.0833 180.955 50.9167 180.955 50.77C180.955 50.25 180.798 49.8367 180.485 49.53C180.172 49.2233 179.765 49.07 179.265 49.07C178.878 49.07 178.515 49.1567 178.175 49.33C177.842 49.5033 177.558 49.7567 177.325 50.09C177.092 50.4167 176.935 50.8067 176.855 51.26C176.822 51.46 176.805 51.63 176.805 51.77C176.805 52.2967 176.958 52.7133 177.265 53.02C177.578 53.32 177.985 53.47 178.485 53.47C178.858 53.47 179.215 53.38 179.555 53.2C179.902 53.02 180.192 52.7633 180.425 52.43C180.665 52.0967 180.825 51.71 180.905 51.27ZM184.023 49.63C184.243 49.25 184.53 48.9567 184.883 48.75C185.236 48.5433 185.646 48.44 186.113 48.44L185.983 49.17H185.783C185.303 49.17 184.89 49.2933 184.543 49.54C184.196 49.7867 183.956 50.1933 183.823 50.76L183.253 54H182.553L183.513 48.54H184.213L184.023 49.63ZM187.506 47.51C187.38 47.51 187.276 47.4733 187.196 47.4C187.116 47.32 187.076 47.2167 187.076 47.09C187.076 46.9167 187.136 46.7733 187.256 46.66C187.376 46.54 187.52 46.48 187.686 46.48C187.813 46.48 187.913 46.5167 187.986 46.59C188.066 46.6633 188.106 46.76 188.106 46.88C188.106 47.0533 188.046 47.2033 187.926 47.33C187.806 47.45 187.666 47.51 187.506 47.51ZM187.666 48.54L186.706 54H186.006L186.966 48.54H187.666ZM189.941 54.08C189.388 54.08 188.938 53.9533 188.591 53.7C188.245 53.44 188.071 53.0867 188.071 52.64C188.071 52.56 188.075 52.5 188.081 52.46H188.761C188.735 52.78 188.828 53.0367 189.041 53.23C189.255 53.4233 189.568 53.52 189.981 53.52C190.401 53.52 190.738 53.4333 190.991 53.26C191.245 53.08 191.371 52.8433 191.371 52.55C191.371 52.3767 191.318 52.23 191.211 52.11C191.105 51.99 190.971 51.8933 190.811 51.82C190.658 51.74 190.441 51.65 190.161 51.55C189.815 51.4233 189.535 51.3067 189.321 51.2C189.115 51.0867 188.935 50.9333 188.781 50.74C188.635 50.54 188.561 50.29 188.561 49.99C188.561 49.69 188.648 49.4233 188.821 49.19C188.995 48.9567 189.231 48.7767 189.531 48.65C189.838 48.5233 190.185 48.46 190.571 48.46C191.111 48.46 191.551 48.5933 191.891 48.86C192.238 49.1267 192.411 49.48 192.411 49.92C192.411 50.0133 192.408 50.0833 192.401 50.13H191.741C191.748 50.1033 191.751 50.06 191.751 50C191.751 49.7067 191.635 49.47 191.401 49.29C191.175 49.11 190.881 49.02 190.521 49.02C190.161 49.02 189.861 49.1067 189.621 49.28C189.388 49.4467 189.271 49.6733 189.271 49.96C189.271 50.1533 189.328 50.3167 189.441 50.45C189.555 50.5767 189.695 50.68 189.861 50.76C190.028 50.84 190.251 50.9333 190.531 51.04C190.865 51.1667 191.131 51.2833 191.331 51.39C191.538 51.4967 191.711 51.6433 191.851 51.83C191.991 52.0167 192.061 52.25 192.061 52.53C192.061 53.0033 191.865 53.38 191.471 53.66C191.078 53.94 190.568 54.08 189.941 54.08Z" fill="black"/>
<path d="M59.1719 18.6406C59.1719 16.2552 58.3229 14.7604 56.625 14.1562C56.0417 13.9479 55.3594 13.8438 54.5781 13.8438C53.7969 13.8438 53.125 13.9323 52.5625 14.1094C52 14.2865 51.5312 14.526 51.1562 14.8281C50.3958 15.4427 50.0156 16.2552 50.0156 17.2656C50.0156 18.7969 51.1406 20.1042 53.3906 21.1875L55.3438 22.1094C56.2917 22.5469 57.2031 22.9948 58.0781 23.4531C58.9635 23.901 59.7448 24.4167 60.4219 25C61.9115 26.2708 62.6562 27.8438 62.6562 29.7188C62.6562 31.7292 61.7812 33.349 60.0312 34.5781C58.3958 35.724 56.3438 36.2969 53.875 36.2969C51.9167 36.2969 50.1875 35.9896 48.6875 35.375C47.5833 34.9375 46.7969 34.3177 46.3281 33.5156C46.0885 33.1094 45.9688 32.6146 45.9688 32.0312C45.9688 30.8646 46.2604 29.776 46.8438 28.7656C47.0417 28.526 47.3125 28.4062 47.6562 28.4062C48.3229 28.4062 48.7083 28.6042 48.8125 29C48.9479 30.8021 49.5 32.1146 50.4688 32.9375C51.4479 33.7604 52.8125 34.1719 54.5625 34.1719C56.5729 34.1719 57.9219 33.5156 58.6094 32.2031C58.849 31.7448 58.9688 31.2083 58.9688 30.5938C58.9688 29.9688 58.8021 29.4115 58.4688 28.9219C58.1354 28.4323 57.6927 27.9792 57.1406 27.5625C56.2969 26.9375 55.1771 26.3333 53.7812 25.75C52.3958 25.1667 51.3125 24.6562 50.5312 24.2188C49.7604 23.7812 49.0781 23.2708 48.4844 22.6875C47.1927 21.4167 46.5469 19.849 46.5469 17.9844C46.5469 16.0781 47.3646 14.5521 49 13.4062C50.5729 12.3021 52.6042 11.75 55.0938 11.75C58.25 11.75 60.3125 12.401 61.2812 13.7031C61.6354 14.1719 61.8125 14.7865 61.8125 15.5469C61.8125 16.3073 61.7396 16.9688 61.5938 17.5312C61.4583 18.0938 61.3229 18.4583 61.1875 18.625C60.9583 18.9062 60.5625 19.0469 60 19.0469C59.4479 19.0469 59.1719 18.9115 59.1719 18.6406ZM75.5654 36.125C75.3258 36.0417 74.8102 36 74.0185 36H67.5029C66.9612 36 66.5289 35.9167 66.206 35.75C65.8831 35.5729 65.7216 35.2552 65.7216 34.7969C65.7216 34.4635 65.7997 34.1979 65.956 34C66.3727 34.1042 66.7529 34.1562 67.0966 34.1562C67.4508 34.1562 67.7268 34.1198 67.9247 34.0469C68.1331 33.974 68.3102 33.8438 68.456 33.6562C68.7789 33.2604 68.9508 32.6094 68.9716 31.7031V15.7344C68.9716 14.9115 68.7425 14.3958 68.2841 14.1875C68.1383 14.1146 67.9404 14.0521 67.6904 14C67.4404 13.9479 67.1904 13.8958 66.9404 13.8438C66.7008 13.7812 66.4977 13.7083 66.331 13.625C65.9977 13.4583 65.831 13.1771 65.831 12.7812C65.831 12.3958 65.9091 12.1094 66.0654 11.9219C66.305 12.0052 66.8206 12.0469 67.6122 12.0469H73.9716C74.5133 12.0469 74.9456 12.1354 75.2685 12.3125C75.6018 12.4792 75.7685 12.7917 75.7685 13.25C75.7685 13.5938 75.6852 13.8594 75.5185 14.0469C75.1227 13.9427 74.6904 13.8906 74.2216 13.8906C73.2112 13.8906 72.6904 14.7135 72.6591 16.3594V32.3125C72.6591 33.1354 72.8883 33.6562 73.3466 33.875C73.4925 33.9375 73.6904 33.9948 73.9404 34.0469C74.1904 34.099 74.4352 34.1562 74.6747 34.2188C74.9247 34.2708 75.1331 34.3385 75.2997 34.4219C75.6435 34.599 75.8154 34.8802 75.8154 35.2656C75.8154 35.6302 75.732 35.9167 75.5654 36.125ZM90.2401 22.7344C90.3755 23.0052 90.4432 23.3073 90.4432 23.6406C90.4432 23.9635 90.4224 24.2344 90.3807 24.4531C90.3495 24.6719 90.2974 24.8646 90.2245 25.0312C90.037 25.4271 89.7974 25.625 89.5057 25.625H79.3339C79.2193 25.3125 79.162 25.0052 79.162 24.7031C79.162 24.3906 79.1776 24.125 79.2089 23.9062C79.2505 23.6875 79.3078 23.4896 79.3807 23.3125C79.5682 22.9271 79.787 22.7344 80.037 22.7344H90.2401ZM107.727 13.8906C106.686 13.8906 106.165 14.7865 106.165 16.5781V29.125C106.165 32.5417 104.826 34.7604 102.149 35.7812C101.233 36.125 100.196 36.2969 99.0399 36.2969C97.8836 36.2969 96.8993 36.1719 96.0868 35.9219C95.2743 35.6719 94.5868 35.3385 94.0243 34.9219C92.8888 34.0677 92.3211 33.0312 92.3211 31.8125C92.3211 30.8958 92.5347 30.1719 92.9618 29.6406C93.3888 29.099 93.9774 28.8281 94.7274 28.8281C95.3524 28.8281 95.769 28.974 95.9774 29.2656C95.8524 29.7656 95.7899 30.25 95.7899 30.7188C95.7899 32.8542 96.894 33.9219 99.1024 33.9219C100.186 33.9219 101.019 33.6094 101.602 32.9844C102.186 32.349 102.477 31.4531 102.477 30.2969V15.7188C102.457 15.1667 102.352 14.8021 102.165 14.625C101.873 14.3646 101.529 14.1979 101.134 14.125C100.738 14.0417 100.404 13.9688 100.134 13.9062C99.8732 13.8438 99.6493 13.7656 99.4618 13.6719C99.1076 13.4844 98.9305 13.1875 98.9305 12.7812C98.9305 12.3958 99.0138 12.1094 99.1805 11.9219C99.4201 12.0052 99.9357 12.0469 100.727 12.0469H107.493C108.681 12.0469 109.274 12.4479 109.274 13.25C109.274 13.5938 109.191 13.8594 109.024 14.0469C108.649 13.9427 108.217 13.8906 107.727 13.8906ZM125.918 34.1562C126.355 34.2292 126.683 34.2656 126.902 34.2656C127.121 34.2656 127.334 34.2448 127.543 34.2031C127.761 34.151 127.954 34.0729 128.121 33.9688C128.496 33.7396 128.683 33.3802 128.683 32.8906C128.683 32.4844 128.558 32.0312 128.308 31.5312L126.84 27.8906H116.949L115.199 32.3281C115.032 32.7344 114.949 33.0312 114.949 33.2188C114.949 33.3958 114.975 33.5312 115.027 33.625C115.09 33.7083 115.178 33.7812 115.293 33.8438C115.418 33.9062 115.569 33.9583 115.746 34L116.386 34.1719C117.074 34.2865 117.517 34.3906 117.715 34.4844C118.121 34.6823 118.324 34.974 118.324 35.3594C118.324 35.6406 118.246 35.8802 118.09 36.0781C117.892 36.026 117.709 36 117.543 36H111.183C109.798 36 109.105 35.6198 109.105 34.8594C109.105 34.5052 109.183 34.2188 109.34 34C109.725 34.1042 110.048 34.1562 110.308 34.1562C110.579 34.1562 110.803 34.1146 110.98 34.0312C111.168 33.9479 111.345 33.8073 111.511 33.6094C111.793 33.2656 112.121 32.5781 112.496 31.5469L120.215 12.8594C120.433 12.3594 121.053 12.0156 122.074 11.8281C122.355 11.776 122.652 11.75 122.965 11.75C123.6 11.75 123.991 11.9219 124.136 12.2656L125.699 16.1719C128.709 23.276 130.449 27.4219 130.918 28.6094L132.324 32.2969C132.605 33.099 132.84 33.5938 133.027 33.7812C133.215 33.9688 133.418 34.099 133.636 34.1719C133.855 34.2448 134.079 34.3073 134.308 34.3594C134.548 34.401 134.756 34.4583 134.933 34.5312C135.329 34.7083 135.527 34.9792 135.527 35.3438C135.527 35.625 135.449 35.8646 135.293 36.0625C135.095 36.0104 134.918 35.9844 134.761 35.9844H127.308C126.777 35.9844 126.36 35.9219 126.058 35.7969C125.767 35.6615 125.621 35.4583 125.621 35.1875C125.621 34.7188 125.72 34.375 125.918 34.1562ZM125.933 25.6719L121.84 15.5469L117.824 25.6719H125.933ZM146.092 36.125C145.853 36.0417 145.342 36 144.561 36H138.186C137.645 36 137.212 35.9167 136.889 35.75C136.566 35.5729 136.405 35.2552 136.405 34.7969C136.405 34.4635 136.483 34.1979 136.639 34C137.035 34.1042 137.415 34.1562 137.78 34.1562C138.145 34.1562 138.431 34.1198 138.639 34.0469C138.848 33.9635 139.03 33.8229 139.186 33.625C139.499 33.2083 139.655 32.5156 139.655 31.5469V15.5625C139.624 14.8333 139.384 14.3698 138.936 14.1719C138.801 14.1094 138.613 14.0521 138.374 14C138.145 13.9479 137.915 13.8958 137.686 13.8438C137.467 13.7812 137.28 13.7083 137.124 13.625C136.811 13.4583 136.655 13.2396 136.655 12.9688C136.655 12.4792 136.738 12.1302 136.905 11.9219C137.145 12.0052 137.66 12.0469 138.452 12.0469H140.483L145.967 11.8906L146.639 11.875C149.848 11.875 152.249 12.4479 153.842 13.5938C155.436 14.7292 156.233 16.3333 156.233 18.4062C156.233 19.9583 155.728 21.3854 154.717 22.6875C153.592 24.1354 152.04 25.1146 150.061 25.625C150.603 26 151.217 26.6875 151.905 27.6875L153.561 30.1094C155.113 32.3698 156.4 33.5 157.421 33.5C157.806 33.5 158.098 33.4635 158.296 33.3906L158.686 33.2344C158.77 33.2031 158.863 33.1875 158.967 33.1875C159.072 33.1875 159.181 33.2708 159.296 33.4375C159.41 33.5938 159.467 33.776 159.467 33.9844C159.467 34.1927 159.379 34.4427 159.202 34.7344C159.025 35.0156 158.775 35.2708 158.452 35.5C157.723 36.0312 156.926 36.2969 156.061 36.2969C155.197 36.2969 154.483 36.151 153.921 35.8594C153.369 35.5677 152.858 35.1875 152.389 34.7188C151.931 34.2396 151.509 33.6979 151.124 33.0938C150.749 32.4896 150.395 31.8698 150.061 31.2344L149.139 29.375C148.483 28.0208 147.957 27.151 147.561 26.7656C147.176 26.3698 146.822 26.1719 146.499 26.1719H144.921C144.66 26.1719 144.53 25.9844 144.53 25.6094C144.53 25.0885 144.728 24.6823 145.124 24.3906C145.259 24.2969 145.665 24.2448 146.342 24.2344C147.02 24.2135 147.78 24.0677 148.624 23.7969C149.478 23.526 150.181 23.1562 150.733 22.6875C151.806 21.7604 152.342 20.4583 152.342 18.7812C152.342 17.375 151.874 16.224 150.936 15.3281C149.874 14.3177 148.395 13.8021 146.499 13.7812C145.249 13.7812 144.415 13.9688 143.999 14.3438C143.582 14.6979 143.363 15.3698 143.342 16.3594V32.3125C143.342 33.1354 143.572 33.6562 144.03 33.875C144.176 33.9375 144.369 33.9948 144.608 34.0469C144.848 34.099 145.077 34.1562 145.296 34.2188C145.525 34.2708 145.717 34.3385 145.874 34.4219C146.186 34.5885 146.342 34.8125 146.342 35.0938C146.342 35.5729 146.259 35.9167 146.092 36.125ZM170.408 36.125C170.168 36.0417 169.653 36 168.861 36H162.345C161.804 36 161.371 35.9167 161.049 35.75C160.726 35.5729 160.564 35.2552 160.564 34.7969C160.564 34.4635 160.642 34.1979 160.799 34C161.215 34.1042 161.595 34.1562 161.939 34.1562C162.293 34.1562 162.569 34.1198 162.767 34.0469C162.976 33.974 163.153 33.8438 163.299 33.6562C163.621 33.2604 163.793 32.6094 163.814 31.7031V15.7344C163.814 14.9115 163.585 14.3958 163.127 14.1875C162.981 14.1146 162.783 14.0521 162.533 14C162.283 13.9479 162.033 13.8958 161.783 13.8438C161.543 13.7812 161.34 13.7083 161.174 13.625C160.84 13.4583 160.674 13.1771 160.674 12.7812C160.674 12.3958 160.752 12.1094 160.908 11.9219C161.147 12.0052 161.663 12.0469 162.455 12.0469H168.814C169.356 12.0469 169.788 12.1354 170.111 12.3125C170.444 12.4792 170.611 12.7917 170.611 13.25C170.611 13.5938 170.528 13.8594 170.361 14.0469C169.965 13.9427 169.533 13.8906 169.064 13.8906C168.054 13.8906 167.533 14.7135 167.502 16.3594V32.3125C167.502 33.1354 167.731 33.6562 168.189 33.875C168.335 33.9375 168.533 33.9948 168.783 34.0469C169.033 34.099 169.278 34.1562 169.517 34.2188C169.767 34.2708 169.976 34.3385 170.142 34.4219C170.486 34.599 170.658 34.8802 170.658 35.2656C170.658 35.6302 170.575 35.9167 170.408 36.125ZM186.989 18.6406C186.989 16.2552 186.14 14.7604 184.442 14.1562C183.859 13.9479 183.176 13.8438 182.395 13.8438C181.614 13.8438 180.942 13.9323 180.38 14.1094C179.817 14.2865 179.348 14.526 178.973 14.8281C178.213 15.4427 177.833 16.2552 177.833 17.2656C177.833 18.7969 178.958 20.1042 181.208 21.1875L183.161 22.1094C184.109 22.5469 185.02 22.9948 185.895 23.4531C186.781 23.901 187.562 24.4167 188.239 25C189.728 26.2708 190.473 27.8438 190.473 29.7188C190.473 31.7292 189.598 33.349 187.848 34.5781C186.213 35.724 184.161 36.2969 181.692 36.2969C179.734 36.2969 178.005 35.9896 176.505 35.375C175.4 34.9375 174.614 34.3177 174.145 33.5156C173.906 33.1094 173.786 32.6146 173.786 32.0312C173.786 30.8646 174.077 29.776 174.661 28.7656C174.859 28.526 175.13 28.4062 175.473 28.4062C176.14 28.4062 176.525 28.6042 176.63 29C176.765 30.8021 177.317 32.1146 178.286 32.9375C179.265 33.7604 180.63 34.1719 182.38 34.1719C184.39 34.1719 185.739 33.5156 186.426 32.2031C186.666 31.7448 186.786 31.2083 186.786 30.5938C186.786 29.9688 186.619 29.4115 186.286 28.9219C185.952 28.4323 185.51 27.9792 184.958 27.5625C184.114 26.9375 182.994 26.3333 181.598 25.75C180.213 25.1667 179.13 24.6562 178.348 24.2188C177.577 23.7812 176.895 23.2708 176.301 22.6875C175.01 21.4167 174.364 19.849 174.364 17.9844C174.364 16.0781 175.182 14.5521 176.817 13.4062C178.39 12.3021 180.421 11.75 182.911 11.75C186.067 11.75 188.13 12.401 189.098 13.7031C189.452 14.1719 189.63 14.7865 189.63 15.5469C189.63 16.3073 189.557 16.9688 189.411 17.5312C189.275 18.0938 189.14 18.4583 189.005 18.625C188.775 18.9062 188.38 19.0469 187.817 19.0469C187.265 19.0469 186.989 18.9115 186.989 18.6406Z" fill="black"/>
<mask id="mask0_932_416" style="mask-type:luminance" maskUnits="userSpaceOnUse" x="2" y="0" width="46" height="39">
<path d="M2.9585 31.4365C11.7175 33.3466 20.5577 28.5687 23.7583 20.1946C25.6197 17.7377 27.4686 14.0757 29.3051 9.20856C31.1999 5.46775 33.2571 2.49597 36.8591 1.00606C40.461 -0.483834 44.5364 -0.31204 48.0002 1.47566C42.1687 4.64641 37.9642 9.83628 36.1276 16.459C31.0942 37.0655 13.2113 46.497 2.9585 31.4365Z" fill="white"/>
</mask>
<g mask="url(#mask0_932_416)">
<path d="M48.0002 -0.483887H2.9585V46.497H48.0002V-0.483887Z" fill="url(#paint0_linear_932_416)"/>
</g>
<mask id="mask1_932_416" style="mask-type:luminance" maskUnits="userSpaceOnUse" x="0" y="13" width="24" height="19">
<path d="M23.7581 20.1948C20.5574 28.5688 11.7172 33.3466 2.95817 31.4366C2.26309 30.4156 1.60309 29.2821 0.984568 28.0319C-2.53459 20.2894 4.15409 8.7951 8.86975 14.6842C13.9179 24.7958 18.8806 26.6327 23.7581 20.1948Z" fill="white"/>
</mask>
<g mask="url(#mask1_932_416)">
<path d="M23.758 8.79492H-2.53467V33.3465H23.758V8.79492Z" fill="url(#paint1_linear_932_416)"/>
</g>
<path fill-rule="evenodd" clip-rule="evenodd" d="M0.980957 28.0178C9.45692 31.6747 19.3234 28.2794 23.7542 20.1812C20.5534 28.5552 11.7136 33.3327 2.95453 31.4226C2.25953 30.4016 1.59951 29.2681 0.980957 28.0178Z" fill="#860000"/>
<path fill-rule="evenodd" clip-rule="evenodd" d="M18.2193 34.1589C34.5208 28.4475 24.164 6.21505 48.0002 1.47559C42.1687 4.64633 37.9642 9.8362 36.1276 16.4589C31.0942 37.0654 13.2112 46.497 2.9585 31.4365C7.21823 34.9527 13.0065 35.9853 18.2193 34.1589Z" fill="#FFF000"/>
<path fill-rule="evenodd" clip-rule="evenodd" d="M5.51397 13.1104C3.75531 16.4511 4.06385 20.5036 6.30799 23.5396C8.55207 26.5756 12.3358 28.0594 16.0455 27.3581C16.3242 27.3054 16.5987 27.2411 16.8687 27.1656C12.1458 29.8321 6.29049 30.3087 0.980852 28.018C0.983427 28.0232 0.985952 28.0283 0.988527 28.0335C0.987202 28.0329 0.985875 28.0323 0.98455 28.0318C-1.73999 22.0374 1.65405 13.7942 5.51397 13.1104Z" fill="#C62C1C"/>
<defs>
<linearGradient id="paint0_linear_932_416" x1="15.7046" y1="38.9249" x2="38.4058" y2="1.95561" gradientUnits="userSpaceOnUse">
<stop stop-color="#007B70"/>
<stop offset="1" stop-color="#AFF022"/>
</linearGradient>
<linearGradient id="paint1_linear_932_416" x1="9.65666" y1="15.8719" x2="12.7641" y2="32.7882" gradientUnits="userSpaceOnUse">
<stop stop-color="#FFCE4B"/>
<stop offset="1" stop-color="#C31656"/>
</linearGradient>
</defs>
</svg>
