<svg width="208" height="39" viewBox="0 0 208 39" fill="none" xmlns="http://www.w3.org/2000/svg">
<path d="M59.1719 18.6406C59.1719 16.2552 58.3229 14.7604 56.625 14.1562C56.0417 13.9479 55.3594 13.8438 54.5781 13.8438C53.7969 13.8438 53.125 13.9323 52.5625 14.1094C52 14.2865 51.5312 14.526 51.1562 14.8281C50.3958 15.4427 50.0156 16.2552 50.0156 17.2656C50.0156 18.7969 51.1406 20.1042 53.3906 21.1875L55.3438 22.1094C56.2917 22.5469 57.2031 22.9948 58.0781 23.4531C58.9635 23.901 59.7448 24.4167 60.4219 25C61.9115 26.2708 62.6562 27.8438 62.6562 29.7188C62.6562 31.7292 61.7812 33.349 60.0312 34.5781C58.3958 35.724 56.3438 36.2969 53.875 36.2969C51.9167 36.2969 50.1875 35.9896 48.6875 35.375C47.5833 34.9375 46.7969 34.3177 46.3281 33.5156C46.0885 33.1094 45.9688 32.6146 45.9688 32.0312C45.9688 30.8646 46.2604 29.776 46.8438 28.7656C47.0417 28.526 47.3125 28.4062 47.6562 28.4062C48.3229 28.4062 48.7083 28.6042 48.8125 29C48.9479 30.8021 49.5 32.1146 50.4688 32.9375C51.4479 33.7604 52.8125 34.1719 54.5625 34.1719C56.5729 34.1719 57.9219 33.5156 58.6094 32.2031C58.849 31.7448 58.9688 31.2083 58.9688 30.5938C58.9688 29.9688 58.8021 29.4115 58.4688 28.9219C58.1354 28.4323 57.6927 27.9792 57.1406 27.5625C56.2969 26.9375 55.1771 26.3333 53.7812 25.75C52.3958 25.1667 51.3125 24.6562 50.5312 24.2188C49.7604 23.7812 49.0781 23.2708 48.4844 22.6875C47.1927 21.4167 46.5469 19.849 46.5469 17.9844C46.5469 16.0781 47.3646 14.5521 49 13.4062C50.5729 12.3021 52.6042 11.75 55.0938 11.75C58.25 11.75 60.3125 12.401 61.2812 13.7031C61.6354 14.1719 61.8125 14.7865 61.8125 15.5469C61.8125 16.3073 61.7396 16.9688 61.5938 17.5312C61.4583 18.0938 61.3229 18.4583 61.1875 18.625C60.9583 18.9062 60.5625 19.0469 60 19.0469C59.4479 19.0469 59.1719 18.9115 59.1719 18.6406ZM75.5654 36.125C75.3258 36.0417 74.8102 36 74.0185 36H67.5029C66.9612 36 66.5289 35.9167 66.206 35.75C65.8831 35.5729 65.7216 35.2552 65.7216 34.7969C65.7216 34.4635 65.7997 34.1979 65.956 34C66.3727 34.1042 66.7529 34.1562 67.0966 34.1562C67.4508 34.1562 67.7268 34.1198 67.9247 34.0469C68.1331 33.974 68.3102 33.8438 68.456 33.6562C68.7789 33.2604 68.9508 32.6094 68.9716 31.7031V15.7344C68.9716 14.9115 68.7425 14.3958 68.2841 14.1875C68.1383 14.1146 67.9404 14.0521 67.6904 14C67.4404 13.9479 67.1904 13.8958 66.9404 13.8438C66.7008 13.7812 66.4977 13.7083 66.331 13.625C65.9977 13.4583 65.831 13.1771 65.831 12.7812C65.831 12.3958 65.9091 12.1094 66.0654 11.9219C66.305 12.0052 66.8206 12.0469 67.6122 12.0469H73.9716C74.5133 12.0469 74.9456 12.1354 75.2685 12.3125C75.6018 12.4792 75.7685 12.7917 75.7685 13.25C75.7685 13.5938 75.6852 13.8594 75.5185 14.0469C75.1227 13.9427 74.6904 13.8906 74.2216 13.8906C73.2112 13.8906 72.6904 14.7135 72.6591 16.3594V32.3125C72.6591 33.1354 72.8883 33.6562 73.3466 33.875C73.4925 33.9375 73.6904 33.9948 73.9404 34.0469C74.1904 34.099 74.4352 34.1562 74.6747 34.2188C74.9247 34.2708 75.1331 34.3385 75.2997 34.4219C75.6435 34.599 75.8154 34.8802 75.8154 35.2656C75.8154 35.6302 75.732 35.9167 75.5654 36.125ZM90.2401 22.7344C90.3755 23.0052 90.4432 23.3073 90.4432 23.6406C90.4432 23.9635 90.4224 24.2344 90.3807 24.4531C90.3495 24.6719 90.2974 24.8646 90.2245 25.0312C90.037 25.4271 89.7974 25.625 89.5057 25.625H79.3339C79.2193 25.3125 79.162 25.0052 79.162 24.7031C79.162 24.3906 79.1776 24.125 79.2089 23.9062C79.2505 23.6875 79.3078 23.4896 79.3807 23.3125C79.5682 22.9271 79.787 22.7344 80.037 22.7344H90.2401ZM107.727 13.8906C106.686 13.8906 106.165 14.7865 106.165 16.5781V29.125C106.165 32.5417 104.826 34.7604 102.149 35.7812C101.233 36.125 100.196 36.2969 99.0399 36.2969C97.8836 36.2969 96.8993 36.1719 96.0868 35.9219C95.2743 35.6719 94.5868 35.3385 94.0243 34.9219C92.8888 34.0677 92.3211 33.0312 92.3211 31.8125C92.3211 30.8958 92.5347 30.1719 92.9618 29.6406C93.3888 29.099 93.9774 28.8281 94.7274 28.8281C95.3524 28.8281 95.769 28.974 95.9774 29.2656C95.8524 29.7656 95.7899 30.25 95.7899 30.7188C95.7899 32.8542 96.894 33.9219 99.1024 33.9219C100.186 33.9219 101.019 33.6094 101.602 32.9844C102.186 32.349 102.477 31.4531 102.477 30.2969V15.7188C102.457 15.1667 102.352 14.8021 102.165 14.625C101.873 14.3646 101.529 14.1979 101.134 14.125C100.738 14.0417 100.404 13.9688 100.134 13.9062C99.8732 13.8438 99.6493 13.7656 99.4618 13.6719C99.1076 13.4844 98.9305 13.1875 98.9305 12.7812C98.9305 12.3958 99.0138 12.1094 99.1805 11.9219C99.4201 12.0052 99.9357 12.0469 100.727 12.0469H107.493C108.681 12.0469 109.274 12.4479 109.274 13.25C109.274 13.5938 109.191 13.8594 109.024 14.0469C108.649 13.9427 108.217 13.8906 107.727 13.8906ZM125.918 34.1562C126.355 34.2292 126.683 34.2656 126.902 34.2656C127.121 34.2656 127.334 34.2448 127.543 34.2031C127.761 34.151 127.954 34.0729 128.121 33.9688C128.496 33.7396 128.683 33.3802 128.683 32.8906C128.683 32.4844 128.558 32.0312 128.308 31.5312L126.84 27.8906H116.949L115.199 32.3281C115.032 32.7344 114.949 33.0312 114.949 33.2188C114.949 33.3958 114.975 33.5312 115.027 33.625C115.09 33.7083 115.178 33.7812 115.293 33.8438C115.418 33.9062 115.569 33.9583 115.746 34L116.386 34.1719C117.074 34.2865 117.517 34.3906 117.715 34.4844C118.121 34.6823 118.324 34.974 118.324 35.3594C118.324 35.6406 118.246 35.8802 118.09 36.0781C117.892 36.026 117.709 36 117.543 36H111.183C109.798 36 109.105 35.6198 109.105 34.8594C109.105 34.5052 109.183 34.2188 109.34 34C109.725 34.1042 110.048 34.1562 110.308 34.1562C110.579 34.1562 110.803 34.1146 110.98 34.0312C111.168 33.9479 111.345 33.8073 111.511 33.6094C111.793 33.2656 112.121 32.5781 112.496 31.5469L120.215 12.8594C120.433 12.3594 121.053 12.0156 122.074 11.8281C122.355 11.776 122.652 11.75 122.965 11.75C123.6 11.75 123.991 11.9219 124.136 12.2656L125.699 16.1719C128.709 23.276 130.449 27.4219 130.918 28.6094L132.324 32.2969C132.605 33.099 132.84 33.5938 133.027 33.7812C133.215 33.9688 133.418 34.099 133.636 34.1719C133.855 34.2448 134.079 34.3073 134.308 34.3594C134.548 34.401 134.756 34.4583 134.933 34.5312C135.329 34.7083 135.527 34.9792 135.527 35.3438C135.527 35.625 135.449 35.8646 135.293 36.0625C135.095 36.0104 134.918 35.9844 134.761 35.9844H127.308C126.777 35.9844 126.36 35.9219 126.058 35.7969C125.767 35.6615 125.621 35.4583 125.621 35.1875C125.621 34.7188 125.72 34.375 125.918 34.1562ZM125.933 25.6719L121.84 15.5469L117.824 25.6719H125.933ZM146.092 36.125C145.853 36.0417 145.342 36 144.561 36H138.186C137.645 36 137.212 35.9167 136.889 35.75C136.566 35.5729 136.405 35.2552 136.405 34.7969C136.405 34.4635 136.483 34.1979 136.639 34C137.035 34.1042 137.415 34.1562 137.78 34.1562C138.145 34.1562 138.431 34.1198 138.639 34.0469C138.848 33.9635 139.03 33.8229 139.186 33.625C139.499 33.2083 139.655 32.5156 139.655 31.5469V15.5625C139.624 14.8333 139.384 14.3698 138.936 14.1719C138.801 14.1094 138.613 14.0521 138.374 14C138.145 13.9479 137.915 13.8958 137.686 13.8438C137.467 13.7812 137.28 13.7083 137.124 13.625C136.811 13.4583 136.655 13.2396 136.655 12.9688C136.655 12.4792 136.738 12.1302 136.905 11.9219C137.145 12.0052 137.66 12.0469 138.452 12.0469H140.483L145.967 11.8906L146.639 11.875C149.848 11.875 152.249 12.4479 153.842 13.5938C155.436 14.7292 156.233 16.3333 156.233 18.4062C156.233 19.9583 155.728 21.3854 154.717 22.6875C153.592 24.1354 152.04 25.1146 150.061 25.625C150.603 26 151.217 26.6875 151.905 27.6875L153.561 30.1094C155.113 32.3698 156.4 33.5 157.421 33.5C157.806 33.5 158.098 33.4635 158.296 33.3906L158.686 33.2344C158.77 33.2031 158.863 33.1875 158.967 33.1875C159.072 33.1875 159.181 33.2708 159.296 33.4375C159.41 33.5938 159.467 33.776 159.467 33.9844C159.467 34.1927 159.379 34.4427 159.202 34.7344C159.025 35.0156 158.775 35.2708 158.452 35.5C157.723 36.0312 156.926 36.2969 156.061 36.2969C155.197 36.2969 154.483 36.151 153.921 35.8594C153.369 35.5677 152.858 35.1875 152.389 34.7188C151.931 34.2396 151.509 33.6979 151.124 33.0938C150.749 32.4896 150.395 31.8698 150.061 31.2344L149.139 29.375C148.483 28.0208 147.957 27.151 147.561 26.7656C147.176 26.3698 146.822 26.1719 146.499 26.1719H144.921C144.66 26.1719 144.53 25.9844 144.53 25.6094C144.53 25.0885 144.728 24.6823 145.124 24.3906C145.259 24.2969 145.665 24.2448 146.342 24.2344C147.02 24.2135 147.78 24.0677 148.624 23.7969C149.478 23.526 150.181 23.1562 150.733 22.6875C151.806 21.7604 152.342 20.4583 152.342 18.7812C152.342 17.375 151.874 16.224 150.936 15.3281C149.874 14.3177 148.395 13.8021 146.499 13.7812C145.249 13.7812 144.415 13.9688 143.999 14.3438C143.582 14.6979 143.363 15.3698 143.342 16.3594V32.3125C143.342 33.1354 143.572 33.6562 144.03 33.875C144.176 33.9375 144.369 33.9948 144.608 34.0469C144.848 34.099 145.077 34.1562 145.296 34.2188C145.525 34.2708 145.717 34.3385 145.874 34.4219C146.186 34.5885 146.342 34.8125 146.342 35.0938C146.342 35.5729 146.259 35.9167 146.092 36.125ZM170.408 36.125C170.168 36.0417 169.653 36 168.861 36H162.345C161.804 36 161.371 35.9167 161.049 35.75C160.726 35.5729 160.564 35.2552 160.564 34.7969C160.564 34.4635 160.642 34.1979 160.799 34C161.215 34.1042 161.595 34.1562 161.939 34.1562C162.293 34.1562 162.569 34.1198 162.767 34.0469C162.976 33.974 163.153 33.8438 163.299 33.6562C163.621 33.2604 163.793 32.6094 163.814 31.7031V15.7344C163.814 14.9115 163.585 14.3958 163.127 14.1875C162.981 14.1146 162.783 14.0521 162.533 14C162.283 13.9479 162.033 13.8958 161.783 13.8438C161.543 13.7812 161.34 13.7083 161.174 13.625C160.84 13.4583 160.674 13.1771 160.674 12.7812C160.674 12.3958 160.752 12.1094 160.908 11.9219C161.147 12.0052 161.663 12.0469 162.455 12.0469H168.814C169.356 12.0469 169.788 12.1354 170.111 12.3125C170.444 12.4792 170.611 12.7917 170.611 13.25C170.611 13.5938 170.528 13.8594 170.361 14.0469C169.965 13.9427 169.533 13.8906 169.064 13.8906C168.054 13.8906 167.533 14.7135 167.502 16.3594V32.3125C167.502 33.1354 167.731 33.6562 168.189 33.875C168.335 33.9375 168.533 33.9948 168.783 34.0469C169.033 34.099 169.278 34.1562 169.517 34.2188C169.767 34.2708 169.976 34.3385 170.142 34.4219C170.486 34.599 170.658 34.8802 170.658 35.2656C170.658 35.6302 170.575 35.9167 170.408 36.125ZM186.989 18.6406C186.989 16.2552 186.14 14.7604 184.442 14.1562C183.859 13.9479 183.176 13.8438 182.395 13.8438C181.614 13.8438 180.942 13.9323 180.38 14.1094C179.817 14.2865 179.348 14.526 178.973 14.8281C178.213 15.4427 177.833 16.2552 177.833 17.2656C177.833 18.7969 178.958 20.1042 181.208 21.1875L183.161 22.1094C184.109 22.5469 185.02 22.9948 185.895 23.4531C186.781 23.901 187.562 24.4167 188.239 25C189.728 26.2708 190.473 27.8438 190.473 29.7188C190.473 31.7292 189.598 33.349 187.848 34.5781C186.213 35.724 184.161 36.2969 181.692 36.2969C179.734 36.2969 178.005 35.9896 176.505 35.375C175.4 34.9375 174.614 34.3177 174.145 33.5156C173.906 33.1094 173.786 32.6146 173.786 32.0312C173.786 30.8646 174.077 29.776 174.661 28.7656C174.859 28.526 175.13 28.4062 175.473 28.4062C176.14 28.4062 176.525 28.6042 176.63 29C176.765 30.8021 177.317 32.1146 178.286 32.9375C179.265 33.7604 180.63 34.1719 182.38 34.1719C184.39 34.1719 185.739 33.5156 186.426 32.2031C186.666 31.7448 186.786 31.2083 186.786 30.5938C186.786 29.9688 186.619 29.4115 186.286 28.9219C185.952 28.4323 185.51 27.9792 184.958 27.5625C184.114 26.9375 182.994 26.3333 181.598 25.75C180.213 25.1667 179.13 24.6562 178.348 24.2188C177.577 23.7812 176.895 23.2708 176.301 22.6875C175.01 21.4167 174.364 19.849 174.364 17.9844C174.364 16.0781 175.182 14.5521 176.817 13.4062C178.39 12.3021 180.421 11.75 182.911 11.75C186.067 11.75 188.13 12.401 189.098 13.7031C189.452 14.1719 189.63 14.7865 189.63 15.5469C189.63 16.3073 189.557 16.9688 189.411 17.5312C189.275 18.0938 189.14 18.4583 189.005 18.625C188.775 18.9062 188.38 19.0469 187.817 19.0469C187.265 19.0469 186.989 18.9115 186.989 18.6406Z" fill="black"/>
<mask id="mask0_721_262" style="mask-type:luminance" maskUnits="userSpaceOnUse" x="2" y="0" width="46" height="39">
<path d="M2.9585 31.4365C11.7175 33.3466 20.5577 28.5687 23.7583 20.1946C25.6197 17.7377 27.4686 14.0757 29.3051 9.20856C31.1999 5.46775 33.2571 2.49597 36.8591 1.00606C40.461 -0.483834 44.5364 -0.31204 48.0002 1.47566C42.1687 4.64641 37.9642 9.83628 36.1276 16.459C31.0942 37.0655 13.2113 46.497 2.9585 31.4365Z" fill="white"/>
</mask>
<g mask="url(#mask0_721_262)">
<path d="M48.0002 -0.483643H2.9585V46.4973H48.0002V-0.483643Z" fill="url(#paint0_linear_721_262)"/>
</g>
<mask id="mask1_721_262" style="mask-type:luminance" maskUnits="userSpaceOnUse" x="0" y="13" width="24" height="19">
<path d="M23.7581 20.1948C20.5574 28.5688 11.7172 33.3466 2.95817 31.4366C2.26309 30.4156 1.60309 29.2821 0.984568 28.0319C-2.53459 20.2894 4.15409 8.79509 8.86975 14.6842C13.9179 24.7958 18.8806 26.6327 23.7581 20.1948Z" fill="white"/>
</mask>
<g mask="url(#mask1_721_262)">
<path d="M23.758 8.79517H-2.53467V33.3467H23.758V8.79517Z" fill="url(#paint1_linear_721_262)"/>
</g>
<path fill-rule="evenodd" clip-rule="evenodd" d="M0.980957 28.0181C9.45692 31.6749 19.3234 28.2797 23.7542 20.1814C20.5534 28.5554 11.7136 33.3329 2.95453 31.4229C2.25953 30.4019 1.59951 29.2683 0.980957 28.0181Z" fill="#860000"/>
<path fill-rule="evenodd" clip-rule="evenodd" d="M18.2193 34.1589C34.5208 28.4475 24.164 6.21505 48.0002 1.47559C42.1687 4.64633 37.9642 9.8362 36.1276 16.4589C31.0942 37.0654 13.2112 46.497 2.9585 31.4365C7.21823 34.9527 13.0065 35.9853 18.2193 34.1589Z" fill="#FFF000"/>
<path fill-rule="evenodd" clip-rule="evenodd" d="M5.51397 13.1104C3.75531 16.4511 4.06385 20.5036 6.30799 23.5396C8.55207 26.5756 12.3358 28.0594 16.0455 27.3581C16.3242 27.3054 16.5987 27.2411 16.8687 27.1656C12.1458 29.8321 6.29049 30.3087 0.980852 28.018C0.983427 28.0232 0.985952 28.0283 0.988527 28.0335C0.987202 28.0329 0.985875 28.0323 0.98455 28.0318C-1.73999 22.0374 1.65405 13.7942 5.51397 13.1104Z" fill="#C62C1C"/>
<defs>
<linearGradient id="paint0_linear_721_262" x1="15.7046" y1="38.9251" x2="38.4058" y2="1.95585" gradientUnits="userSpaceOnUse">
<stop stop-color="#007B70"/>
<stop offset="1" stop-color="#AFF022"/>
</linearGradient>
<linearGradient id="paint1_linear_721_262" x1="9.65666" y1="15.8722" x2="12.7641" y2="32.7884" gradientUnits="userSpaceOnUse">
<stop stop-color="#FFCE4B"/>
<stop offset="1" stop-color="#C31656"/>
</linearGradient>
</defs>
</svg>
