<svg width="48" height="39" viewBox="0 0 48 39" fill="none" xmlns="http://www.w3.org/2000/svg">
<mask id="mask0_721_264" style="mask-type:luminance" maskUnits="userSpaceOnUse" x="2" y="0" width="46" height="39">
<path d="M2.9585 31.4365C11.7175 33.3466 20.5577 28.5687 23.7583 20.1946C25.6197 17.7377 27.4686 14.0757 29.3051 9.20856C31.1999 5.46775 33.2571 2.49597 36.8591 1.00606C40.461 -0.483834 44.5364 -0.31204 48.0002 1.47566C42.1687 4.64641 37.9642 9.83628 36.1276 16.459C31.0942 37.0655 13.2113 46.497 2.9585 31.4365Z" fill="white"/>
</mask>
<g mask="url(#mask0_721_264)">
<path d="M48.0002 -0.483643H2.9585V46.4973H48.0002V-0.483643Z" fill="url(#paint0_linear_721_264)"/>
</g>
<mask id="mask1_721_264" style="mask-type:luminance" maskUnits="userSpaceOnUse" x="0" y="13" width="24" height="19">
<path d="M23.7581 20.1948C20.5574 28.5688 11.7172 33.3466 2.95817 31.4366C2.26309 30.4156 1.60309 29.2821 0.984568 28.0319C-2.53459 20.2894 4.15409 8.79509 8.86975 14.6842C13.9179 24.7958 18.8806 26.6327 23.7581 20.1948Z" fill="white"/>
</mask>
<g mask="url(#mask1_721_264)">
<path d="M23.758 8.79517H-2.53467V33.3467H23.758V8.79517Z" fill="url(#paint1_linear_721_264)"/>
</g>
<path fill-rule="evenodd" clip-rule="evenodd" d="M0.980957 28.0181C9.45692 31.6749 19.3234 28.2797 23.7542 20.1814C20.5534 28.5554 11.7136 33.3329 2.95453 31.4229C2.25953 30.4019 1.59951 29.2683 0.980957 28.0181Z" fill="#860000"/>
<path fill-rule="evenodd" clip-rule="evenodd" d="M18.2193 34.1589C34.5208 28.4475 24.164 6.21505 48.0002 1.47559C42.1687 4.64633 37.9642 9.8362 36.1276 16.4589C31.0942 37.0654 13.2112 46.497 2.9585 31.4365C7.21823 34.9527 13.0065 35.9853 18.2193 34.1589Z" fill="#FFF000"/>
<path fill-rule="evenodd" clip-rule="evenodd" d="M5.51397 13.1104C3.75531 16.4511 4.06385 20.5036 6.30799 23.5396C8.55207 26.5756 12.3358 28.0594 16.0455 27.3581C16.3242 27.3054 16.5987 27.2411 16.8687 27.1656C12.1458 29.8321 6.29049 30.3087 0.980852 28.018C0.983427 28.0232 0.985952 28.0283 0.988527 28.0335C0.987202 28.0329 0.985875 28.0323 0.98455 28.0318C-1.73999 22.0374 1.65405 13.7942 5.51397 13.1104Z" fill="#C62C1C"/>
<defs>
<linearGradient id="paint0_linear_721_264" x1="15.7046" y1="38.9251" x2="38.4058" y2="1.95585" gradientUnits="userSpaceOnUse">
<stop stop-color="#007B70"/>
<stop offset="1" stop-color="#AFF022"/>
</linearGradient>
<linearGradient id="paint1_linear_721_264" x1="9.65666" y1="15.8722" x2="12.7641" y2="32.7884" gradientUnits="userSpaceOnUse">
<stop stop-color="#FFCE4B"/>
<stop offset="1" stop-color="#C31656"/>
</linearGradient>
</defs>
</svg>
